<svg width="138" height="67" viewBox="0 0 138 67" fill="none" xmlns="http://www.w3.org/2000/svg">
<rect width="138" height="67" fill="#F5F5F5"/>
<path d="M13.7822 20.5916C13.9469 20.4505 14.1116 20.3093 17.1831 19.4623C20.2546 18.6152 26.2279 17.0666 29.3659 16.245C32.5039 15.4235 32.6256 15.3759 32.7793 15.2405" stroke="black" stroke-linecap="round"/>
<path d="M33.3623 14.7171C33.3052 15.0171 33.125 15.8944 32.7556 17.522C32.5495 18.43 32.2552 19.4925 31.9759 22.0597C31.6965 24.627 31.4282 28.6639 30.5994 34.0733C29.7706 39.4827 28.3894 46.1423 27.6778 49.831C26.9663 53.5197 26.9663 54.0356 26.9663 54.5672" stroke="black" stroke-linecap="round"/>
<path d="M32.2837 1.63605C32.1354 1.63605 31.7695 1.63605 31.2785 1.68278C31.0726 1.70237 30.9725 1.82296 30.9186 2.02547C30.8647 2.22798 30.8647 2.53671 30.9264 2.71912C30.988 2.90153 31.1113 2.94825 31.2894 2.97233C32.1041 3.08241 32.811 2.79443 33.3044 2.53515C33.4182 2.47532 33.4745 2.33464 33.4656 2.22834C33.3616 2.02697 33.1496 1.87198 32.9102 1.77129C32.7849 1.72764 32.6518 1.69912 32.4282 1.61212" stroke="black" stroke-linecap="round"/>
<path d="M26.7822 54.6487C26.7632 54.6297 26.7534 54.3918 26.7171 53.8345C26.6676 53.076 26.1776 51.2934 25.5746 47.8654C25.2126 45.8073 25.199 43.034 25.1532 41.405C25.0958 39.3587 25.3483 38.3897 25.7534 37.1854C26.5816 34.7233 27.0975 34.185 28.0316 32.8317C28.595 32.0154 29.5523 30.9094 30.0873 30.1714C30.4191 29.7136 30.8461 29.2306 31.1823 28.7329C31.3745 28.4483 32.1645 27.7411 34.0458 26.3366C35.236 25.448 37.0784 24.4485 38.2826 23.669C39.4869 22.8896 40.0417 22.4235 41.1567 21.5412C42.2718 20.6589 43.9303 19.3747 45.0299 18.4278C46.1295 17.4808 46.6198 16.9101 48.1952 15.4924C49.7706 14.0748 52.4163 11.8274 55.4644 9.63888C58.5125 7.45032 61.8829 5.38863 64.1023 4.10893C66.3218 2.82924 67.2881 2.39402 68.4441 1.96042C70.8928 1.04197 72.7278 0.615012 73.5511 0.521751C74.6336 0.399125 75.3499 0.821272 75.8036 1.18196C75.9987 1.33703 75.9332 1.80943 75.76 2.35854C75.6071 2.8433 74.8451 3.3472 73.4562 4.16773C72.587 4.68127 71.256 5.15843 68.9048 5.74114C66.5535 6.32385 63.1895 6.93792 54.5829 7.39437C45.9762 7.85082 32.2289 8.13103 23.2094 8.72719C14.19 9.32336 10.3151 10.227 7.92574 10.8383C4.72722 11.6567 3.45636 12.3426 2.57593 12.9817C1.00535 14.1216 0.563498 15.2405 0.507028 15.5257C0.476854 15.6781 0.549977 15.8577 0.640597 15.9949C0.81721 16.2622 1.43215 16.3792 3.4426 16.357C5.02235 16.2747 7.73808 16.0482 9.21541 15.9064C10.6927 15.7646 10.8494 15.7145 11.124 15.576" stroke="black" stroke-linecap="round"/>
<path d="M38.7973 32.6922C40.6282 32.2823 42.6769 31.8283 45.0768 31.0968C46.9718 30.5192 48.7741 29.3363 50.3662 28.167C50.938 27.747 50.9858 27.6202 51.022 27.4636C51.0583 27.307 51.0702 27.1093 50.968 26.9742C50.8658 26.839 50.649 26.7725 50.4221 26.7728C49.0467 26.775 47.6242 27.9929 46.8411 29.1872C46.2286 30.1214 46.3266 31.4361 46.4804 32.3408C46.5499 32.749 46.9542 33.0097 47.2668 33.2021C47.9613 33.6296 49.7764 33.2032 51.7067 32.6496C52.5792 32.3994 53.998 31.4569 55.916 30.1012C57.5946 28.9147 58.2348 27.956 58.4536 27.8494C58.5657 27.7948 58.7183 27.8479 58.8192 27.9817C59.564 28.9691 58.748 31.3512 58.593 32.2043C58.5461 32.4624 60.2682 30.7319 62.2479 28.735C62.9698 28.0069 63.184 27.9253 63.3687 27.8699C63.7102 27.7675 64.1125 27.866 64.5028 28.0359C64.6817 28.1138 64.7776 28.2606 64.8266 28.4225C65.0835 29.2712 64.4331 30.5131 64.2506 31.4156C64.2096 31.6183 64.2319 31.8175 64.2834 31.9794C64.3349 32.1413 64.4378 32.2633 64.5808 32.3485C65.2735 32.7615 66.2374 32.2853 66.9257 31.8172C67.9639 31.1113 68.5853 29.7509 68.93 29.0517C69.0044 28.9006 69.0742 28.7698 69.1063 28.7695C69.8321 28.764 68.9594 30.7731 69.1313 31.3897C69.1701 31.5288 69.2818 31.6211 69.3997 31.6989C70.3528 32.3279 73.2467 31.6325 75.2366 30.6638C76.7479 29.928 77.1074 28.5064 77.0908 28.8161C77.0663 29.2719 76.663 30.2819 76.4057 31.3352C76.1485 32.3884 75.9611 33.4411 75.3134 35.3173C74.6657 37.1934 73.5634 39.8611 72.9094 41.5744C72.2555 43.2877 72.0832 43.9658 71.3622 47.6038C70.6412 51.2418 69.3766 57.8193 68.6947 61.2935C67.8881 65.4032 67.6978 66.0859 67.6497 66.2002C67.5778 66.371 67.7117 64.5759 67.7088 62.3992C67.7068 60.9629 67.252 59.9136 66.652 58.6177C66.2866 57.8285 65.6661 56.8366 64.4234 55.3303C63.1807 53.824 61.301 51.8498 60.113 50.6459C58.5211 49.0328 57.5611 48.3587 56.5829 47.7449C55.5994 47.1277 54.1741 46.7081 52.5551 46.2787C51.7789 46.0729 51.066 46.0089 49.8862 45.9739C48.7064 45.9388 47.074 45.9648 45.8798 46.0362C43.9734 46.1501 42.5412 46.5819 41.2643 47.0469C40.691 47.2557 40.2963 47.4795 38.971 48.4895C37.6456 49.4995 35.4084 51.3067 34.0916 52.4139C31.7951 54.3449 31.3305 55.5677 30.809 57.1272C30.5305 57.9599 30.5621 58.8378 30.6246 59.5433C30.7006 60.402 31.6151 60.7391 33.1425 61.3769C33.8461 61.6708 34.4961 61.6176 34.993 61.5872C35.3324 61.5665 35.9224 61.3395 39.6106 59.5473C42.8548 57.9707 48.8154 54.8971 60.2816 50.0115C71.7479 45.1258 88.5211 38.4847 98.02 34.8885C107.519 31.2923 109.235 30.9421 114.335 30.6111C119.436 30.28 127.869 29.9787 132.284 29.8329C136.698 29.6871 136.839 29.706 136.939 29.7765C137.142 29.919 137.163 30.3349 137.08 30.8914C136.969 31.6382 136.436 32.1418 136.071 32.4491C135.863 32.5993 135.612 32.7379 130.615 33.9632C125.619 35.1886 115.887 37.4965 105.777 40.032" stroke="black" stroke-linecap="round"/>
</svg>
